<svg class="murf-svg" width="210" height="42" viewBox="0 0 210 42" fill="none" xmlns="http://www.w3.org/2000/svg">
<g clip-path="url(#clip0_8350_7048)">
<path d="M29.2572 28.3072L2.6949 1.58462C2.47378 1.36295 2.19229 1.21214 1.886 1.15125C1.57971 1.09036 1.26234 1.12212 0.973982 1.24252C0.685625 1.36292 0.43921 1.56655 0.265857 1.8277C0.0925055 2.08886 -8.3179e-06 2.39582 5.60922e-10 2.70982C5.60922e-10 10.1356 1.36262 21.2332 5.41661 27.2005C11.1806 35.6849 21.8086 36.6559 29.2572 28.3072Z" fill="url(#paint0_radial_8350_7048)"/>
<path d="M5.32822e-07 36.0957C-0.000378699 36.9908 0.201684 37.8743 0.590898 38.6793C0.980113 39.4843 1.54628 40.1897 2.24657 40.7421C2.94686 41.2946 3.76291 41.6796 4.63299 41.8681C5.50307 42.0566 6.40438 42.0436 7.26872 41.83C14.9986 39.9123 22.9324 35.995 29.3641 28.4173L29.2573 28.3097C21.8086 36.6585 11.1806 35.6875 5.41661 27.203C1.36262 21.2358 5.32822e-07 10.1382 5.32822e-07 2.7124V36.0957Z" fill="url(#paint1_linear_8350_7048)"/>
<path d="M29.2 28.2301C21.7513 36.5789 11.3929 35.5549 5.59499 27.0939C1.70939 21.4235 0.262451 10.2804 0.262451 2.85449" stroke="url(#paint2_linear_8350_7048)" stroke-width="0.277665" stroke-miterlimit="10"/>
<path d="M14.7219 13.6962L41.2844 40.4187C41.5055 40.6404 41.787 40.7912 42.0933 40.852C42.3996 40.9129 42.7169 40.8812 43.0053 40.7608C43.2936 40.6404 43.54 40.4367 43.7134 40.1756C43.8867 39.9145 43.9792 39.6075 43.9792 39.2935C43.9792 31.8676 42.6167 20.7701 38.5626 14.8029C32.7986 6.31851 22.1705 5.34736 14.7219 13.6962Z" fill="url(#paint3_radial_8350_7048)"/>
<path d="M43.9877 5.91006C43.9881 5.01496 43.786 4.13149 43.3968 3.32651C43.0076 2.52153 42.4414 1.81613 41.7411 1.26367C41.0408 0.711212 40.2248 0.326178 39.3547 0.1377C38.4846 -0.0507784 37.5833 -0.0377632 36.719 0.175761C28.9891 2.09352 21.0553 6.01081 14.6235 13.5885L14.7304 13.6961C22.179 5.34726 32.8071 6.31841 38.5711 14.8028C42.6251 20.77 43.9877 31.8675 43.9877 39.2934L43.9877 5.91006Z" fill="url(#paint4_linear_8350_7048)"/>
<path d="M15.8374 12.5418C15.8374 12.5418 23.341 4.37727 33.2229 9.70995L24.1846 18.7998L15.8374 12.5418Z" fill="url(#paint5_linear_8350_7048)"/>
<path d="M14.7983 13.7868C22.247 5.43799 32.6393 6.43864 38.4033 14.923C42.4573 20.8902 43.7359 31.7365 43.7359 39.1624" stroke="url(#paint6_linear_8350_7048)" stroke-width="0.277665" stroke-miterlimit="10"/>
<path d="M21.9937 31.4844C27.7496 31.4844 32.4156 26.7917 32.4156 21.003C32.4156 15.2144 27.7496 10.5217 21.9937 10.5217C16.2378 10.5217 11.5718 15.2144 11.5718 21.003C11.5718 26.7917 16.2378 31.4844 21.9937 31.4844Z" fill="white"/>
<path d="M95.2978 10.5327V31.4959H89.8227V12.6012L91.0456 12.7409L82.9858 31.4959H77.1494L69.0619 12.7968L70.3125 12.6571V31.4959H64.8374V10.5327H73.731L81.2071 28.533H78.9837L86.4043 10.5327H95.2978Z" fill="#E81DB8"/>
<path d="M104.661 22.1324C104.661 23.0827 104.841 23.9072 105.203 24.606C105.558 25.2992 106.122 25.8616 106.815 26.2131C107.528 26.5861 108.403 26.7725 109.441 26.7722C110.497 26.7722 111.377 26.5858 112.081 26.2131C112.766 25.8603 113.321 25.2974 113.665 24.606C114.017 23.9072 114.193 23.0826 114.194 22.1324V10.5327H119.974V22.4118C119.974 24.3313 119.534 26.0037 118.654 27.429C117.763 28.8646 116.486 30.0176 114.972 30.7551C113.397 31.547 111.553 31.943 109.441 31.943C107.347 31.943 105.508 31.547 103.924 30.7551C102.404 30.0208 101.122 28.8674 100.228 27.429C99.3476 26.0035 98.9075 24.3311 98.9077 22.4118V10.5327H104.661V22.1324Z" fill="#E81DB8"/>
<path d="M127.568 19.7007H135.155C136.082 19.7007 136.804 19.4864 137.323 19.0578C137.842 18.6294 138.101 18.0331 138.101 17.269C138.101 16.4863 137.842 15.8853 137.323 15.4661C136.804 15.0469 136.082 14.8373 135.155 14.8372H126.762L129.347 12.0701V31.4959H123.594V10.5327H135.961C137.555 10.5327 138.944 10.8169 140.13 11.3853C141.252 11.8993 142.212 12.711 142.909 13.7332C143.576 14.7302 143.91 15.9088 143.91 17.2689C143.91 18.5922 143.576 19.7568 142.909 20.7628C142.218 21.7898 141.255 22.6028 140.13 23.1106C138.944 23.6696 137.555 23.9491 135.961 23.9491H127.568L127.568 19.7007ZM130.323 23.9491H129.347L134.006 23.3557C135.233 23.1994 136.479 23.3694 137.62 23.8485C138.762 24.3277 139.758 25.0993 140.51 26.0865L144.633 31.4959H137.962L133.581 25.5921C133.202 25.0822 132.71 24.6681 132.145 24.3829C131.579 24.0977 130.955 23.9491 130.323 23.9491Z" fill="#E81DB8"/>
<path d="M165.662 10.5327V15.4241H150.209L152.961 12.6571V31.4959H147.208V10.5327H165.662ZM156.117 19.1136H165.134V24.005H156.092C155.247 24.005 154.436 24.3426 153.839 24.9435C153.241 25.5444 152.906 26.3594 152.906 27.2092V29.6924L152.411 23.1349C152.372 22.6216 152.439 22.1058 152.608 21.6198C152.776 21.1338 153.043 20.6881 153.391 20.3106C153.739 19.9331 154.161 19.6319 154.63 19.426C155.099 19.22 155.605 19.1136 156.117 19.1136Z" fill="#E81DB8"/>
<path d="M192.786 11.0523L202.264 32.0155H196.122L188.173 13.512H189.84L181.864 32.0155H175.722L185.199 11.0522L192.786 11.0523ZM181.697 27.9905V23.3227H189.68C190.823 23.3227 191.935 23.697 192.847 24.389C193.76 25.081 194.424 26.0531 194.739 27.1583L196.122 32.0155L195.455 30.4156C195.156 29.6972 194.652 29.0837 194.008 28.6522C193.363 28.2207 192.605 27.9905 191.831 27.9905H181.697Z" fill="#E81DB8"/>
<path d="M204.247 11.0522H210V32.0155H204.247V11.0522Z" fill="#E81DB8"/>
<path d="M169.11 34.9519C171.01 34.9519 172.55 33.403 172.55 31.4923C172.55 29.5816 171.01 28.0327 169.11 28.0327C167.211 28.0327 165.67 29.5816 165.67 31.4923C165.67 33.403 167.211 34.9519 169.11 34.9519Z" fill="white"/>
</g>
<defs>
<radialGradient id="paint0_radial_8350_7048" cx="0" cy="0" r="1" gradientUnits="userSpaceOnUse" gradientTransform="translate(20.649 23.6037) rotate(180) scale(29.2413 29.408)">
<stop offset="0.2794" stop-color="#DAABFF"/>
<stop offset="0.8659" stop-color="#735DFF"/>
</radialGradient>
<linearGradient id="paint1_linear_8350_7048" x1="-8.38768" y1="16.5" x2="21.0312" y2="32.6222" gradientUnits="userSpaceOnUse">
<stop offset="0.4244" stop-color="#C6B2FF"/>
<stop offset="0.8444" stop-color="#735DFF"/>
</linearGradient>
<linearGradient id="paint2_linear_8350_7048" x1="9.44841" y1="0.31329" x2="18.6425" y2="34.4315" gradientUnits="userSpaceOnUse">
<stop offset="0.0039" stop-color="white" stop-opacity="0"/>
<stop offset="0.103" stop-color="white" stop-opacity="0.0753"/>
<stop offset="0.3046" stop-color="white" stop-opacity="0.2709"/>
<stop offset="0.5911" stop-color="white" stop-opacity="0.5862"/>
<stop offset="0.9369" stop-color="white"/>
</linearGradient>
<radialGradient id="paint3_radial_8350_7048" cx="0" cy="0" r="1" gradientUnits="userSpaceOnUse" gradientTransform="translate(23.3302 18.3996) scale(29.2413 29.408)">
<stop offset="0.2202" stop-color="#FFD522"/>
<stop offset="0.2652" stop-color="#FFCA28"/>
<stop offset="0.344" stop-color="#FFAD37"/>
<stop offset="0.4467" stop-color="#FF7E51"/>
<stop offset="0.5444" stop-color="#FF4B6C"/>
<stop offset="1" stop-color="#C81395"/>
</radialGradient>
<linearGradient id="paint4_linear_8350_7048" x1="21.0647" y1="22.7489" x2="47.3959" y2="18.6648" gradientUnits="userSpaceOnUse">
<stop offset="0.3465" stop-color="#F02173"/>
<stop offset="0.6144" stop-color="#E81DB8"/>
<stop offset="0.7594" stop-color="#C516E1"/>
<stop offset="1" stop-color="#735DFF"/>
</linearGradient>
<linearGradient id="paint5_linear_8350_7048" x1="15.2902" y1="13.351" x2="27.8868" y2="13.351" gradientUnits="userSpaceOnUse">
<stop stop-color="white"/>
<stop offset="0.4463" stop-color="white" stop-opacity="0.5078"/>
<stop offset="0.7987" stop-color="white" stop-opacity="0.1433"/>
<stop offset="0.9564" stop-color="white" stop-opacity="0"/>
</linearGradient>
<linearGradient id="paint6_linear_8350_7048" x1="34.5683" y1="41.6987" x2="25.3734" y2="7.5775" gradientUnits="userSpaceOnUse">
<stop offset="0.0039" stop-color="white" stop-opacity="0"/>
<stop offset="0.103" stop-color="white" stop-opacity="0.0753"/>
<stop offset="0.3046" stop-color="white" stop-opacity="0.2709"/>
<stop offset="0.5911" stop-color="white" stop-opacity="0.5862"/>
<stop offset="0.9369" stop-color="white"/>
</linearGradient>
<clipPath id="clip0_8350_7048">
<rect width="210" height="42" fill="white"/>
</clipPath>
</defs>
</svg>
