<svg xmlns="http://www.w3.org/2000/svg" xmlns:xlink="http://www.w3.org/1999/xlink" width="386" height="98" viewBox="0 0 386 98"><defs><path id="a" d="M0 0h386.538v100H0z"/></defs><g fill="none" fill-rule="evenodd" transform="translate(-1 -1)"><mask id="b" fill="#fff"><use xlink:href="#a"/></mask><path fill="#1F7CE0" d="M380.108 46.39c-.147-3.624-3.069-6.816-7.453-6.816-4.823 0-7.6 3.046-8.037 6.815h15.49zm-7.306-12.325c7.89 0 13.736 5.8 13.736 13.776 0 .582 0 1.594-.147 2.03 0 .723-.73 1.306-1.315 1.306h-20.898c0 4.06 3.801 8.12 9.062 8.12 3.507 0 5.552-1.304 7.451-2.463.587-.437 1.172-.583 1.756.144l1.75 2.757c.586.577.733 1.156-.144 2.03-2.193 1.885-6.138 3.77-11.251 3.77-9.209 0-15.052-7.105-15.052-15.664 0-8.555 5.847-15.806 15.052-15.806m-40.914 28.422c-.438-.288-.88-.869-.585-1.596l1.316-2.753c.29-.58 1.168-.868 1.896-.433 1.758 1.013 3.945 2.173 7.452 2.173 2.484 0 3.947-1.163 3.947-2.9 0-2.029-2.339-3.334-6.429-5.22-4.679-2.033-8.182-4.494-8.182-9.426 0-3.773 2.627-8.125 9.935-8.125 4.238 0 7.307 1.306 8.766 2.177.732.579 1.026 1.45.585 2.175l-1.021 2.029c-.438.87-1.316.87-1.901.582-2.044-.87-4.092-1.448-6.429-1.448-2.629 0-3.797 1.302-3.797 2.61 0 1.882 2.187 3.042 5.113 4.351 5.55 2.317 9.792 4.348 9.792 9.859 0 4.641-4.094 8.703-10.817 8.703-4.528.29-7.89-1.595-9.645-2.758zm-21.192-2.32c3.071 0 6.14-2.174 7.018-3.623V51.61c-.44-.29-2.782-1.017-5.553-1.017-3.51 0-6.287 1.89-6.287 4.932.147 2.612 1.757 4.64 4.822 4.64m1.027-14.357c3.065 0 6.134.87 6.134.87.147-4.785-1.021-6.812-4.822-6.812-3.507 0-6.867 1.014-8.473 1.448-.878.143-1.463-.434-1.753-1.305l-.587-2.465c-.144-1.016.294-1.45 1.024-1.744.582-.143 4.823-1.737 10.374-1.737 9.645 0 10.522 5.8 10.522 13.195v15.952a1.566 1.566 0 0 1-1.463 1.452h-2.19c-.588 0-.879-.289-1.173-1.014l-.727-2.032a13.05 13.05 0 0 1-9.352 3.769c-5.7 0-9.792-3.769-9.792-10.003.147-5.367 4.532-9.57 12.278-9.57zm-28.351-11.745c4.679 0 8.184 1.737 10.96 5.217.585.729.434 1.596-.29 2.177l-2.339 2.178c-.878.723-1.463.143-1.902-.292-1.312-1.45-3.798-3.046-6.282-3.046-5.113 0-9.209 4.207-9.209 9.426 0 5.367 3.949 9.572 8.918 9.572 3.945 0 5.551-2.173 7.16-3.77.58-.581 1.315-.581 2.042-.147l2.05 1.598c.728.58 1.02 1.306.58 2.175-2.483 3.769-6.571 6.234-11.832 6.234-8.476 0-15.491-6.669-15.491-15.662.147-8.7 7.306-15.66 15.639-15.66zM253.856 20.72c0-.723.584-1.448 1.46-1.448h3.653a1.565 1.565 0 0 1 1.46 1.448v42.642a1.565 1.565 0 0 1-1.46 1.448h-3.65a1.46 1.46 0 0 1-1.463-1.452zm-16.075 0c0-.723.585-1.448 1.461-1.448h3.654a1.565 1.565 0 0 1 1.46 1.448v42.642a1.565 1.565 0 0 1-1.46 1.448h-3.65a1.46 1.46 0 0 1-1.465-1.452zM215.28 60.166c3.067 0 6.135-2.173 7.012-3.622V51.61c-.436-.29-2.776-1.017-5.553-1.017-3.506 0-6.281 1.89-6.281 4.932 0 2.612 1.606 4.64 4.822 4.64m.878-14.356c3.067 0 6.134.87 6.134.87.147-4.785-1.021-6.812-4.822-6.812-3.505 0-6.865 1.014-8.471 1.448-.88.143-1.465-.434-1.755-1.305l-.587-2.465c-.144-1.016.29-1.45 1.025-1.744.583-.143 4.822-1.737 10.373-1.737 9.645 0 10.668 5.8 10.668 13.195v15.952a1.57 1.57 0 0 1-1.461 1.452h-2.193c-.584 0-.874-.289-1.312-1.014l-.734-2.032a13.05 13.05 0 0 1-9.349 3.769c-5.702 0-9.792-3.769-9.792-10.003.147-5.367 4.53-9.57 12.276-9.57zm-64.295-9.572c0-.725.581-1.448 1.459-1.448h1.46c.731 0 1.173.289 1.316.87l.878 2.609c.581-.723 3.797-4.204 9.645-4.204 4.382 0 7.011 1.737 9.205 4.786.877-.87 4.384-4.786 10.226-4.786 9.21 0 11.547 6.38 11.547 14.212v15.081c0 .801-.656 1.452-1.463 1.452h-3.65c-.878 0-1.465-.58-1.465-1.452V47.987c0-4.786-1.897-7.688-5.989-7.688-4.531 0-6.722 3.046-7.308 3.48.148.581.291 2.466.291 4.062v15.521c0 .72-.583 1.448-1.312 1.448h-3.801c-.878 0-1.459-.58-1.459-1.452V47.987c0-4.932-1.755-7.688-5.994-7.688-4.528 0-6.867 3.338-7.158 4.355v18.704a1.566 1.566 0 0 1-1.462 1.452h-3.65a1.457 1.457 0 0 1-1.463-1.452v-27.12zm-27.62 26.25c-.437-.29-.878-.87-.584-1.597l1.314-2.753c.294-.58 1.172-.868 1.902-.433 1.75 1.013 3.945 2.173 7.45 2.173 2.486 0 3.945-1.163 3.945-2.9 0-2.029-2.337-3.334-6.429-5.22-4.675-2.033-8.182-4.494-8.182-9.426 0-3.773 2.63-8.125 9.936-8.125 4.237 0 7.308 1.306 8.767 2.177.73.579 1.025 1.45.587 2.175l-1.025 2.029c-.436.87-1.312.87-1.899.582-2.042-.87-4.092-1.448-6.43-1.448-2.628 0-3.8 1.302-3.8 2.61 0 1.882 2.193 3.042 5.117 4.351 5.553 2.317 9.788 4.348 9.788 9.859 0 4.641-4.088 8.703-10.815 8.703-4.526.29-7.887-1.595-9.643-2.758m-80.67-49.11 16.803 8.104a1.653 1.653 0 0 1 .773 2.22 1.66 1.66 0 0 1-.743.756l-16.3 8.281a1.74 1.74 0 0 1-1.533 0l-16.801-8.1a1.657 1.657 0 0 1-.032-2.974l16.3-8.283a1.74 1.74 0 0 1 1.532-.003m.12 30.777 39.774-20.208a1.654 1.654 0 0 0-.036-2.97L44 1.965a1.72 1.72 0 0 0-1.526 0L2.7 22.163a1.657 1.657 0 0 0 .034 2.975l39.447 19.01a1.72 1.72 0 0 0 1.511 0zm33.421 14.56c-.3 6.896-4.077 13.178-10.047 16.714-5.536 2.824-10.027-.07-10.023-6.482.296-6.894 4.074-13.18 10.047-16.716 5.535-2.824 10.023.083 10.023 6.48zm11.74 17.348V31.12a1.69 1.69 0 0 0-1.707-1.668 1.7 1.7 0 0 0-.772.189L46.247 50.128c-.56.281-.913.851-.915 1.474v44.944a1.69 1.69 0 0 0 1.707 1.668 1.7 1.7 0 0 0 .771-.188l40.14-20.487a1.66 1.66 0 0 0 .903-1.476M26.799 80.01 8.738 71.334a1.66 1.66 0 0 1-.785-2.217q.053-.103.116-.198l9.04-13.295a1.713 1.713 0 0 1 2.369-.449c.274.185.488.444.615.747l9.043 21.955a1.66 1.66 0 0 1-.857 2.192 1.68 1.68 0 0 1-1.48-.063z" mask="url(#b)"/></g></svg>