<svg width="94" height="30" viewBox="0 0 94 30" fill="none" xmlns="http://www.w3.org/2000/svg">
<g clip-path="url(#clip0_8364_29222)">
<path d="M26.3562 15.2309L20.5771 18.5791V12.1777L26.3562 15.2309Z" fill="#1F1F1F"/>
<path d="M5.7515 11.8392L5.76161 18.518L0.0400391 15.4062L5.7515 11.8392Z" fill="#1F1F1F"/>
<path fill-rule="evenodd" clip-rule="evenodd" d="M13.6503 29.9612L26.3861 22.6083L26.3861 16.2335L19.734 20.08L19.6758 3.48654L13.6402 0.00195312L13.6503 29.9612ZM12.6947 0.064878L0 7.39409L0 14.3221L6.60574 10.2361L6.60574 26.4789L6.65076 26.5049L6.60574 26.5307V26.5535L10.8824 28.9478L12.7048 29.9999L12.6947 0.064878Z" fill="#1F1F1F"/>
<path d="M73.0023 23.6899H69.8431L60.3379 9.31175V23.6899H57.1787V4.4082H60.3379L69.8431 18.7587V4.4082H73.0023V23.6899Z" fill="#1F1F1F"/>
<path d="M53.8254 4.4082V23.6899H50.6816V4.4082H53.8254Z" fill="#1F1F1F"/>
<path d="M38.3869 20.9433H47.3292V23.6899H34.6494V21.2208L43.5641 7.15481H34.6494V4.4082H47.3292V6.87738L38.3869 20.9433Z" fill="#1F1F1F"/>
<path fill-rule="evenodd" clip-rule="evenodd" d="M93.4293 19.7092C91.684 22.1843 88.8028 23.801 85.5441 23.801C80.2191 23.801 75.9023 19.4843 75.9023 14.1593C75.9023 8.83432 80.2191 4.51758 85.5441 4.51758C88.5175 4.51758 91.1767 5.86361 92.9453 7.97959L90.7883 9.78092C89.5607 8.16524 87.6684 7.12974 85.5455 7.12974C81.8451 7.12974 78.8453 10.2758 78.8453 14.1568C78.8453 18.0377 81.8451 21.1838 85.5455 21.1838C87.8624 21.1838 89.9046 19.9504 91.1078 18.0756L93.4293 19.7092Z" fill="#1F1F1F"/>
</g>
<defs>
<clipPath id="clip0_8364_29222">
<rect width="93.4286" height="30" fill="white"/>
</clipPath>
</defs>
</svg>
